# Blender v2.80 (sub 75) OBJ File: ''
# www.blender.org
mtllib door.mtl
o Pixel_Door_Cube.002
v 1.500000 -0.000000 0.125000
v 1.500000 6.500000 0.125000
v -1.500000 6.500000 0.125000
v -1.500000 0.000000 0.125000
v -1.500000 6.500000 -0.125000
v -1.500000 0.000000 -0.125000
v 1.500000 6.500000 -0.125000
v 1.500000 -0.000000 -0.125000
vt 1.000000 0.000000
vt 1.000000 1.000000
vt 0.000000 1.000000
vt 0.000000 0.000000
vt 0.000000 1.000000
vt 0.000000 0.000000
vt 1.000000 1.000000
vt 1.000000 0.000000
vt 1.000000 0.000000
vt 0.000000 0.000000
vt 1.000000 1.000000
vt 0.000000 1.000000
vn 0.0000 -0.0000 1.0000
vn -1.0000 0.0000 0.0000
vn -0.0000 0.0000 -1.0000
vn 1.0000 -0.0000 0.0000
vn -0.0000 -1.0000 0.0000
vn 0.0000 1.0000 0.0000
usemtl Default_OBJ
s 1
f 1/1/1 2/2/1 3/3/1 4/4/1
f 4/4/2 3/3/2 5/5/2 6/6/2
f 6/6/3 5/5/3 7/7/3 8/8/3
f 8/8/4 7/7/4 2/2/4 1/1/4
f 4/9/5 6/6/5 8/10/5 1/1/5
f 5/5/6 3/11/6 2/2/6 7/12/6
