# Blender v2.80 (sub 75) OBJ File: ''
# www.blender.org
mtllib door_frame.mtl
o Cube.001
v 2.000000 7.000000 -0.304937
v 2.000000 7.000000 0.304937
v 2.000000 -0.000000 0.304937
v 2.000000 -0.000000 -0.304937
v -2.000000 7.000000 0.304937
v -2.000000 7.000000 -0.304937
v 1.500000 -0.000000 -0.304937
v 1.500000 -0.000000 0.304937
v 1.500000 6.500000 0.304937
v 1.500000 6.500000 -0.304937
v -2.000000 0.000000 -0.304937
v -2.000000 0.000000 0.304937
v -1.500000 0.000000 -0.304937
v -1.500000 6.500000 -0.304937
v -1.500000 0.000000 0.304937
v -1.500000 6.500000 0.304937
vt 0.543562 0.948980
vt 0.456438 0.948980
vt 0.456438 -0.051020
vt 0.543562 -0.051020
vt 0.456438 0.785714
vt 0.456438 0.214286
vt 0.543562 0.214286
vt 0.543562 0.785714
vt 0.543562 -0.051020
vt 0.456438 -0.051020
vt 0.456438 0.877551
vt 0.543562 0.877551
vt 0.456438 0.948980
vt 0.543562 0.948980
vt 0.543562 -0.051020
vt 0.456438 -0.051020
vt 0.714286 -0.051020
vt 0.785714 -0.051020
vt 0.785714 0.948980
vt 0.714286 0.877551
vt 0.285714 0.877551
vt 0.214286 0.948980
vt 0.214286 -0.051020
vt 0.285714 -0.051020
vt 0.785714 0.948980
vt 0.785714 -0.051020
vt 0.714286 -0.051020
vt 0.714286 0.877551
vt 0.543562 0.877551
vt 0.456438 0.877551
vt 0.456438 -0.051020
vt 0.543562 -0.051020
vt 0.543562 0.285714
vt 0.456438 0.285714
vt 0.456438 0.714286
vt 0.543562 0.714286
vt 0.214286 0.948980
vt 0.285714 0.877551
vt 0.285714 -0.051020
vt 0.214286 -0.051020
vt 0.543562 0.785714
vt 0.543562 0.714286
vt 0.456438 0.714286
vt 0.456438 0.785714
vt 0.543562 0.214286
vt 0.456438 0.214286
vt 0.456438 0.285714
vt 0.543562 0.285714
vn 1.0000 -0.0000 0.0000
vn 0.0000 1.0000 0.0000
vn -1.0000 0.0000 0.0000
vn -0.0000 0.0000 -1.0000
vn 0.0000 -0.0000 1.0000
vn 0.0000 -1.0000 0.0000
usemtl Default_OBJ
s 1
f 1/1/1 2/2/1 3/3/1 4/4/1
f 5/5/2 2/6/2 1/7/2 6/8/2
f 7/9/3 8/10/3 9/11/3 10/12/3
f 5/13/3 6/14/3 11/15/3 12/16/3
f 13/17/4 11/18/4 6/19/4 14/20/4
f 10/21/4 1/22/4 4/23/4 7/24/4
f 14/20/4 6/19/4 1/22/4 10/21/4
f 5/25/5 12/26/5 15/27/5 16/28/5
f 14/29/1 16/30/1 15/31/1 13/32/1
f 10/33/6 9/34/6 16/35/6 14/36/6
f 2/37/5 9/38/5 8/39/5 3/40/5
f 5/25/5 16/28/5 9/38/5 2/37/5
f 11/41/6 13/42/6 15/43/6 12/44/6
f 4/45/6 3/46/6 8/47/6 7/48/6
