# Blender v2.80 (sub 75) OBJ File: 'door-frame.blend'
# www.blender.org
o Cube
v 0.304937 0.000000 -1.500000
v 0.304937 6.500000 -1.500000
v 0.304937 0.000000 1.500000
v 0.304937 6.500000 1.500000
v -0.304937 0.000000 -2.000000
v -0.304937 7.000000 -2.000000
v -0.304937 0.000000 2.000000
v -0.304937 7.000000 2.000000
v 0.304937 0.000000 -2.000000
v 0.304937 7.000000 -2.000000
v 0.304937 0.000000 2.000000
v 0.304937 7.000000 2.000000
v -0.304937 0.000000 -1.500000
v -0.304937 6.500000 -1.500000
v -0.304937 0.000000 1.500000
v -0.304937 6.500000 1.500000
vt 0.543562 0.948980
vt 0.456438 0.948980
vt 0.456438 -0.051020
vt 0.543562 -0.051020
vt 0.456438 0.785714
vt 0.456438 0.214286
vt 0.543562 0.214286
vt 0.543562 0.785714
vt 0.543562 -0.051020
vt 0.456438 -0.051020
vt 0.456438 0.877551
vt 0.543562 0.877551
vt 0.456438 0.948980
vt 0.543562 0.948980
vt 0.543562 -0.051020
vt 0.456438 -0.051020
vt 0.714286 -0.051020
vt 0.785714 -0.051020
vt 0.785714 0.948980
vt 0.714286 0.877551
vt 0.285714 0.877551
vt 0.214286 0.948980
vt 0.214286 -0.051020
vt 0.285714 -0.051020
vt 0.785714 0.948980
vt 0.785714 -0.051020
vt 0.714286 -0.051020
vt 0.714286 0.877551
vt 0.543562 0.877551
vt 0.456438 0.877551
vt 0.456438 -0.051020
vt 0.543562 -0.051020
vt 0.543562 0.285714
vt 0.456438 0.285714
vt 0.456438 0.714286
vt 0.543562 0.714286
vt 0.214286 0.948980
vt 0.285714 0.877551
vt 0.285714 -0.051020
vt 0.214286 -0.051020
vt 0.543562 0.785714
vt 0.543562 0.714286
vt 0.456438 0.714286
vt 0.456438 0.785714
vt 0.543562 0.214286
vt 0.456438 0.214286
vt 0.456438 0.285714
vt 0.543562 0.285714
vn 0.0000 0.0000 1.0000
vn 0.0000 1.0000 0.0000
vn 0.0000 0.0000 -1.0000
vn 1.0000 0.0000 0.0000
vn -1.0000 0.0000 0.0000
vn 0.0000 -1.0000 0.0000
g Cube_Cube_Material
s off
f 12/1/1 8/2/1 7/3/1 11/4/1
f 6/5/2 8/6/2 12/7/2 10/8/2
f 3/9/3 15/10/3 16/11/3 4/12/3
f 6/13/3 10/14/3 9/15/3 5/16/3
f 1/17/4 9/18/4 10/19/4 2/20/4
f 4/21/4 12/22/4 11/23/4 3/24/4
f 2/20/4 10/19/4 12/22/4 4/21/4
f 6/25/5 5/26/5 13/27/5 14/28/5
f 2/29/1 14/30/1 13/31/1 1/32/1
f 4/33/6 16/34/6 14/35/6 2/36/6
f 8/37/5 16/38/5 15/39/5 7/40/5
f 6/25/5 14/28/5 16/38/5 8/37/5
f 9/41/6 1/42/6 13/43/6 5/44/6
f 11/45/6 7/46/6 15/47/6 3/48/6
